<svg width="88" height="25" viewBox="0 0 88 25" fill="none" xmlns="http://www.w3.org/2000/svg">
<path fill-rule="evenodd" clip-rule="evenodd" d="M77.7043 0.040967C72.0295 0.040967 67.4086 4.68957 67.4086 10.3984V14.5576C67.4086 20.2664 72.0295 24.915 77.7043 24.915C83.3791 24.915 88 20.2664 88 14.5576V10.3984C88 4.68957 83.3791 0.040967 77.7043 0.040967ZM82.8927 14.5576C82.8927 17.412 80.5417 19.7771 77.7043 19.7771C74.8669 19.7771 72.5159 17.412 72.5159 14.5576V10.3984C72.5159 7.54397 74.8669 5.17888 77.7043 5.17888C80.5417 5.17888 82.8927 7.54397 82.8927 10.3984V14.5576ZM17.7946 1.18272H13.2547C13.0926 1.18272 12.9304 1.34583 12.9304 1.50893V14.4761C12.9304 17.2489 10.6605 19.6956 7.9042 19.7771C6.36389 19.7771 4.98572 19.1247 4.0129 18.146C3.93183 18.0645 3.68862 17.9829 3.60756 18.146L0.121603 21.082C-0.0405343 21.1635 -0.0405343 21.4082 0.121603 21.4897C2.06725 23.6917 4.90465 25.0781 8.06633 24.9966C13.6601 24.915 18.1999 20.1033 18.1999 14.4761V1.59049C18.1188 1.34583 17.9567 1.18272 17.7946 1.18272ZM54.4376 0.040967C52.1677 0.040967 50.0599 0.85651 48.3574 2.07982L46.4929 0.367179C46.2496 0.122516 45.9254 0.040967 45.52 0.040967C44.7904 0.040967 44.2229 0.693411 44.2229 1.4274V22.3053C44.2229 22.7946 44.3851 23.2839 44.6283 23.6917C45.439 24.915 46.9793 25.2412 48.1953 24.4257L54.5997 20.2664C54.7619 20.1849 54.7619 19.9402 54.6808 19.8587L52.2487 16.0256C52.1677 15.8625 51.9245 15.8625 51.8434 15.9441L49.4113 17.4936V10.3984C49.4113 7.54397 51.6812 5.1789 54.4376 5.09734C57.3561 5.01579 59.707 7.38086 59.707 10.3168V23.3655C59.707 23.5286 59.8692 23.6917 60.0313 23.6917H64.5712C64.7333 23.6917 64.8954 23.5286 64.8954 23.3655V10.4799C64.8144 4.77111 60.1935 -0.0405873 54.4376 0.040967ZM41.0613 1.18272C40.2506 -0.0405923 38.7103 -0.366805 37.4942 0.448738L31.0898 4.60801C30.9277 4.68957 30.9277 4.85268 31.0088 5.01578L33.4408 8.84882C33.5219 9.01193 33.684 9.01194 33.8462 8.93038L36.2782 7.38085V14.4761C36.2782 17.3305 34.0083 19.6956 31.252 19.7771C28.3335 19.8587 25.9825 17.4936 25.9825 14.5576V1.50893C25.9825 1.34583 25.8204 1.18272 25.6582 1.18272H21.1184C20.9562 1.18272 20.7941 1.34583 20.7941 1.50893V14.3945C20.7941 20.1033 25.4961 24.915 31.1709 24.915C33.4408 24.915 35.5486 24.0995 37.251 22.8762C39.7642 21.0004 41.3855 17.9829 41.3855 14.5576V2.56916C41.4666 2.07983 41.3045 1.67205 41.0613 1.18272Z" fill="white"/>
</svg>
